<?xml version="1.0" encoding="UTF-8" standalone="no"?>
<!DOCTYPE svg PUBLIC "-//W3C//DTD SVG 1.1//EN"
 "http://www.w3.org/Graphics/SVG/1.1/DTD/svg11.dtd">
<!-- Generated by graphviz version 2.43.0 (0)
 -->
<!-- Title: snakemake_dag Pages: 1 -->
<svg width="925pt" height="476pt"
 viewBox="0.00 0.00 925.00 476.00" xmlns="http://www.w3.org/2000/svg" xmlns:xlink="http://www.w3.org/1999/xlink">
<g id="graph0" class="graph" transform="scale(1 1) rotate(0) translate(4 472)">
<title>snakemake_dag</title>
<polygon fill="white" stroke="transparent" points="-4,4 -4,-472 921,-472 921,4 -4,4"/>
<!-- 0 -->
<g id="node1" class="node">
<title>0</title>
<path fill="none" stroke="#d87556" stroke-width="2" d="M389.5,-36C389.5,-36 359.5,-36 359.5,-36 353.5,-36 347.5,-30 347.5,-24 347.5,-24 347.5,-12 347.5,-12 347.5,-6 353.5,0 359.5,0 359.5,0 389.5,0 389.5,0 395.5,0 401.5,-6 401.5,-12 401.5,-12 401.5,-24 401.5,-24 401.5,-30 395.5,-36 389.5,-36"/>
<text text-anchor="middle" x="374.5" y="-15.5" font-family="sans" font-size="10.00">all</text>
</g>
<!-- 1 -->
<g id="node2" class="node">
<title>1</title>
<path fill="none" stroke="#d88d56" stroke-width="2" d="M506,-396C506,-396 429,-396 429,-396 423,-396 417,-390 417,-384 417,-384 417,-372 417,-372 417,-366 423,-360 429,-360 429,-360 506,-360 506,-360 512,-360 518,-366 518,-372 518,-372 518,-384 518,-384 518,-390 512,-396 506,-396"/>
<text text-anchor="middle" x="467.5" y="-375.5" font-family="sans" font-size="10.00">check_min_reads</text>
</g>
<!-- 1&#45;&gt;0 -->
<g id="edge1" class="edge">
<title>1&#45;&gt;0</title>
<path fill="none" stroke="grey" stroke-width="2" d="M416.89,-376.34C327.85,-372.23 152.5,-349.58 152.5,-235 152.5,-235 152.5,-235 152.5,-161 152.5,-116.27 164.99,-100.46 199.5,-72 239.24,-39.24 298.9,-26.71 337.27,-21.94"/>
<polygon fill="grey" stroke="grey" stroke-width="2" points="337.95,-25.38 347.49,-20.78 337.16,-18.43 337.95,-25.38"/>
</g>
<!-- 9 -->
<g id="node10" class="node">
<title>9</title>
<path fill="none" stroke="#d8ac56" stroke-width="2" d="M526,-324C526,-324 409,-324 409,-324 403,-324 397,-318 397,-312 397,-312 397,-300 397,-300 397,-294 403,-288 409,-288 409,-288 526,-288 526,-288 532,-288 538,-294 538,-300 538,-300 538,-312 538,-312 538,-318 532,-324 526,-324"/>
<text text-anchor="middle" x="467.5" y="-303.5" font-family="sans" font-size="10.00">check_min_reads_filtered</text>
</g>
<!-- 1&#45;&gt;9 -->
<g id="edge15" class="edge">
<title>1&#45;&gt;9</title>
<path fill="none" stroke="grey" stroke-width="2" d="M467.5,-359.7C467.5,-351.98 467.5,-342.71 467.5,-334.11"/>
<polygon fill="grey" stroke="grey" stroke-width="2" points="471,-334.1 467.5,-324.1 464,-334.1 471,-334.1"/>
</g>
<!-- 15 -->
<g id="node16" class="node">
<title>15</title>
<path fill="none" stroke="#61d856" stroke-width="2" d="M643.5,-180C643.5,-180 555.5,-180 555.5,-180 549.5,-180 543.5,-174 543.5,-168 543.5,-168 543.5,-156 543.5,-156 543.5,-150 549.5,-144 555.5,-144 555.5,-144 643.5,-144 643.5,-144 649.5,-144 655.5,-150 655.5,-156 655.5,-156 655.5,-168 655.5,-168 655.5,-174 649.5,-180 643.5,-180"/>
<text text-anchor="middle" x="599.5" y="-159.5" font-family="sans" font-size="10.00">generate_summary</text>
</g>
<!-- 1&#45;&gt;15 -->
<g id="edge21" class="edge">
<title>1&#45;&gt;15</title>
<path fill="none" stroke="grey" stroke-width="2" d="M500.69,-359.91C535.56,-339.69 587.76,-302.3 605.5,-252 612.52,-232.1 610.37,-208.17 606.82,-190.14"/>
<polygon fill="grey" stroke="grey" stroke-width="2" points="610.21,-189.28 604.62,-180.28 603.38,-190.8 610.21,-189.28"/>
</g>
<!-- 2 -->
<g id="node3" class="node">
<title>2</title>
<path fill="none" stroke="#b6d856" stroke-width="2" d="M107,-468C107,-468 12,-468 12,-468 6,-468 0,-462 0,-456 0,-456 0,-444 0,-444 0,-438 6,-432 12,-432 12,-432 107,-432 107,-432 113,-432 119,-438 119,-444 119,-444 119,-456 119,-456 119,-462 113,-468 107,-468"/>
<text text-anchor="middle" x="59.5" y="-453" font-family="sans" font-size="10.00">count_reads</text>
<text text-anchor="middle" x="59.5" y="-442" font-family="sans" font-size="10.00">sample: sample_A11</text>
</g>
<!-- 2&#45;&gt;1 -->
<g id="edge8" class="edge">
<title>2&#45;&gt;1</title>
<path fill="none" stroke="grey" stroke-width="2" d="M119.13,-433.77C121.96,-433.15 124.76,-432.56 127.5,-432 224.55,-412.35 338.45,-395.93 406.7,-386.79"/>
<polygon fill="grey" stroke="grey" stroke-width="2" points="407.39,-390.23 416.84,-385.44 406.47,-383.29 407.39,-390.23"/>
</g>
<!-- 3 -->
<g id="node4" class="node">
<title>3</title>
<path fill="none" stroke="#b6d856" stroke-width="2" d="M244,-468C244,-468 149,-468 149,-468 143,-468 137,-462 137,-456 137,-456 137,-444 137,-444 137,-438 143,-432 149,-432 149,-432 244,-432 244,-432 250,-432 256,-438 256,-444 256,-444 256,-456 256,-456 256,-462 250,-468 244,-468"/>
<text text-anchor="middle" x="196.5" y="-453" font-family="sans" font-size="10.00">count_reads</text>
<text text-anchor="middle" x="196.5" y="-442" font-family="sans" font-size="10.00">sample: sample_A13</text>
</g>
<!-- 3&#45;&gt;1 -->
<g id="edge9" class="edge">
<title>3&#45;&gt;1</title>
<path fill="none" stroke="grey" stroke-width="2" d="M256.31,-433.55C301.09,-421.99 362.1,-406.22 407.04,-394.62"/>
<polygon fill="grey" stroke="grey" stroke-width="2" points="408.14,-397.95 416.94,-392.06 406.38,-391.17 408.14,-397.95"/>
</g>
<!-- 4 -->
<g id="node5" class="node">
<title>4</title>
<path fill="none" stroke="#b6d856" stroke-width="2" d="M381,-468C381,-468 286,-468 286,-468 280,-468 274,-462 274,-456 274,-456 274,-444 274,-444 274,-438 280,-432 286,-432 286,-432 381,-432 381,-432 387,-432 393,-438 393,-444 393,-444 393,-456 393,-456 393,-462 387,-468 381,-468"/>
<text text-anchor="middle" x="333.5" y="-453" font-family="sans" font-size="10.00">count_reads</text>
<text text-anchor="middle" x="333.5" y="-442" font-family="sans" font-size="10.00">sample: sample_A17</text>
</g>
<!-- 4&#45;&gt;1 -->
<g id="edge10" class="edge">
<title>4&#45;&gt;1</title>
<path fill="none" stroke="grey" stroke-width="2" d="M366.28,-431.88C384.13,-422.55 406.4,-410.92 425.5,-400.94"/>
<polygon fill="grey" stroke="grey" stroke-width="2" points="427.35,-403.92 434.59,-396.19 424.11,-397.72 427.35,-403.92"/>
</g>
<!-- 5 -->
<g id="node6" class="node">
<title>5</title>
<path fill="none" stroke="#b6d856" stroke-width="2" d="M512,-468C512,-468 423,-468 423,-468 417,-468 411,-462 411,-456 411,-456 411,-444 411,-444 411,-438 417,-432 423,-432 423,-432 512,-432 512,-432 518,-432 524,-438 524,-444 524,-444 524,-456 524,-456 524,-462 518,-468 512,-468"/>
<text text-anchor="middle" x="467.5" y="-453" font-family="sans" font-size="10.00">count_reads</text>
<text text-anchor="middle" x="467.5" y="-442" font-family="sans" font-size="10.00">sample: sample_A3</text>
</g>
<!-- 5&#45;&gt;1 -->
<g id="edge11" class="edge">
<title>5&#45;&gt;1</title>
<path fill="none" stroke="grey" stroke-width="2" d="M467.5,-431.7C467.5,-423.98 467.5,-414.71 467.5,-406.11"/>
<polygon fill="grey" stroke="grey" stroke-width="2" points="471,-406.1 467.5,-396.1 464,-406.1 471,-406.1"/>
</g>
<!-- 6 -->
<g id="node7" class="node">
<title>6</title>
<path fill="none" stroke="#b6d856" stroke-width="2" d="M643,-468C643,-468 554,-468 554,-468 548,-468 542,-462 542,-456 542,-456 542,-444 542,-444 542,-438 548,-432 554,-432 554,-432 643,-432 643,-432 649,-432 655,-438 655,-444 655,-444 655,-456 655,-456 655,-462 649,-468 643,-468"/>
<text text-anchor="middle" x="598.5" y="-453" font-family="sans" font-size="10.00">count_reads</text>
<text text-anchor="middle" x="598.5" y="-442" font-family="sans" font-size="10.00">sample: sample_A5</text>
</g>
<!-- 6&#45;&gt;1 -->
<g id="edge12" class="edge">
<title>6&#45;&gt;1</title>
<path fill="none" stroke="grey" stroke-width="2" d="M566.45,-431.88C549.01,-422.55 527.23,-410.92 508.56,-400.94"/>
<polygon fill="grey" stroke="grey" stroke-width="2" points="510.14,-397.82 499.67,-396.19 506.84,-403.99 510.14,-397.82"/>
</g>
<!-- 7 -->
<g id="node8" class="node">
<title>7</title>
<path fill="none" stroke="#b6d856" stroke-width="2" d="M774,-468C774,-468 685,-468 685,-468 679,-468 673,-462 673,-456 673,-456 673,-444 673,-444 673,-438 679,-432 685,-432 685,-432 774,-432 774,-432 780,-432 786,-438 786,-444 786,-444 786,-456 786,-456 786,-462 780,-468 774,-468"/>
<text text-anchor="middle" x="729.5" y="-453" font-family="sans" font-size="10.00">count_reads</text>
<text text-anchor="middle" x="729.5" y="-442" font-family="sans" font-size="10.00">sample: sample_A7</text>
</g>
<!-- 7&#45;&gt;1 -->
<g id="edge13" class="edge">
<title>7&#45;&gt;1</title>
<path fill="none" stroke="grey" stroke-width="2" d="M672.97,-433.9C630.27,-422.49 571.75,-406.85 528.08,-395.19"/>
<polygon fill="grey" stroke="grey" stroke-width="2" points="528.73,-391.74 518.17,-392.54 526.92,-398.5 528.73,-391.74"/>
</g>
<!-- 8 -->
<g id="node9" class="node">
<title>8</title>
<path fill="none" stroke="#b6d856" stroke-width="2" d="M905,-468C905,-468 816,-468 816,-468 810,-468 804,-462 804,-456 804,-456 804,-444 804,-444 804,-438 810,-432 816,-432 816,-432 905,-432 905,-432 911,-432 917,-438 917,-444 917,-444 917,-456 917,-456 917,-462 911,-468 905,-468"/>
<text text-anchor="middle" x="860.5" y="-453" font-family="sans" font-size="10.00">count_reads</text>
<text text-anchor="middle" x="860.5" y="-442" font-family="sans" font-size="10.00">sample: sample_A9</text>
</g>
<!-- 8&#45;&gt;1 -->
<g id="edge14" class="edge">
<title>8&#45;&gt;1</title>
<path fill="none" stroke="grey" stroke-width="2" d="M803.86,-433.84C801.04,-433.2 798.24,-432.58 795.5,-432 702.95,-412.47 594.39,-396.21 528.3,-387.05"/>
<polygon fill="grey" stroke="grey" stroke-width="2" points="528.45,-383.54 518.07,-385.64 527.5,-390.47 528.45,-383.54"/>
</g>
<!-- 9&#45;&gt;0 -->
<g id="edge2" class="edge">
<title>9&#45;&gt;0</title>
<path fill="none" stroke="grey" stroke-width="2" d="M425.8,-287.91C364.96,-260.38 254.24,-199.83 209.5,-108 202.49,-93.62 200.07,-84.93 209.5,-72 238.5,-32.22 297.83,-21.64 336.88,-19.18"/>
<polygon fill="grey" stroke="grey" stroke-width="2" points="337.49,-22.66 347.31,-18.69 337.15,-15.67 337.49,-22.66"/>
</g>
<!-- 10 -->
<g id="node11" class="node">
<title>10</title>
<path fill="none" stroke="#56c1d8" stroke-width="2" d="M584.5,-252C584.5,-252 538.5,-252 538.5,-252 532.5,-252 526.5,-246 526.5,-240 526.5,-240 526.5,-228 526.5,-228 526.5,-222 532.5,-216 538.5,-216 538.5,-216 584.5,-216 584.5,-216 590.5,-216 596.5,-222 596.5,-228 596.5,-228 596.5,-240 596.5,-240 596.5,-246 590.5,-252 584.5,-252"/>
<text text-anchor="middle" x="561.5" y="-231.5" font-family="sans" font-size="10.00">pool_naive</text>
</g>
<!-- 9&#45;&gt;10 -->
<g id="edge16" class="edge">
<title>9&#45;&gt;10</title>
<path fill="none" stroke="grey" stroke-width="2" d="M490.74,-287.7C502.69,-278.8 517.42,-267.82 530.35,-258.2"/>
<polygon fill="grey" stroke="grey" stroke-width="2" points="532.6,-260.88 538.53,-252.1 528.42,-255.27 532.6,-260.88"/>
</g>
<!-- 11 -->
<g id="node12" class="node">
<title>11</title>
<path fill="none" stroke="#56d8d0" stroke-width="2" d="M458.5,-252C458.5,-252 414.5,-252 414.5,-252 408.5,-252 402.5,-246 402.5,-240 402.5,-240 402.5,-228 402.5,-228 402.5,-222 408.5,-216 414.5,-216 414.5,-216 458.5,-216 458.5,-216 464.5,-216 470.5,-222 470.5,-228 470.5,-228 470.5,-240 470.5,-240 470.5,-246 464.5,-252 458.5,-252"/>
<text text-anchor="middle" x="436.5" y="-231.5" font-family="sans" font-size="10.00">pool_multi</text>
</g>
<!-- 9&#45;&gt;11 -->
<g id="edge17" class="edge">
<title>9&#45;&gt;11</title>
<path fill="none" stroke="grey" stroke-width="2" d="M459.84,-287.7C456.31,-279.73 452.04,-270.1 448.13,-261.26"/>
<polygon fill="grey" stroke="grey" stroke-width="2" points="451.32,-259.83 444.07,-252.1 444.92,-262.67 451.32,-259.83"/>
</g>
<!-- 9&#45;&gt;15 -->
<g id="edge22" class="edge">
<title>9&#45;&gt;15</title>
<path fill="none" stroke="grey" stroke-width="2" d="M474.22,-287.68C482.31,-268.49 497.35,-237.44 517.5,-216 528.64,-204.15 542.96,-193.73 556.5,-185.34"/>
<polygon fill="grey" stroke="grey" stroke-width="2" points="558.44,-188.25 565.24,-180.13 554.86,-182.24 558.44,-188.25"/>
</g>
<!-- 10&#45;&gt;0 -->
<g id="edge3" class="edge">
<title>10&#45;&gt;0</title>
<path fill="none" stroke="grey" stroke-width="2" d="M596.75,-225.02C620.41,-217.63 649.84,-204.04 664.5,-180 672.83,-166.34 670.72,-158.74 664.5,-144 623.51,-46.92 480.58,-25.15 411.9,-20.33"/>
<polygon fill="grey" stroke="grey" stroke-width="2" points="411.74,-16.82 401.54,-19.7 411.31,-23.8 411.74,-16.82"/>
</g>
<!-- 10&#45;&gt;15 -->
<g id="edge23" class="edge">
<title>10&#45;&gt;15</title>
<path fill="none" stroke="grey" stroke-width="2" d="M570.89,-215.7C575.26,-207.64 580.56,-197.89 585.4,-188.98"/>
<polygon fill="grey" stroke="grey" stroke-width="2" points="588.52,-190.56 590.21,-180.1 582.37,-187.22 588.52,-190.56"/>
</g>
<!-- 11&#45;&gt;0 -->
<g id="edge4" class="edge">
<title>11&#45;&gt;0</title>
<path fill="none" stroke="grey" stroke-width="2" d="M415.3,-215.58C405.38,-206.15 394.46,-193.65 388.5,-180 369.45,-136.33 369.51,-79.76 371.71,-46.61"/>
<polygon fill="grey" stroke="grey" stroke-width="2" points="375.23,-46.57 372.52,-36.32 368.25,-46.02 375.23,-46.57"/>
</g>
<!-- 13 -->
<g id="node14" class="node">
<title>13</title>
<path fill="none" stroke="#56d8b9" stroke-width="2" d="M513.5,-180C513.5,-180 409.5,-180 409.5,-180 403.5,-180 397.5,-174 397.5,-168 397.5,-168 397.5,-156 397.5,-156 397.5,-150 403.5,-144 409.5,-144 409.5,-144 513.5,-144 513.5,-144 519.5,-144 525.5,-150 525.5,-156 525.5,-156 525.5,-168 525.5,-168 525.5,-174 519.5,-180 513.5,-180"/>
<text text-anchor="middle" x="461.5" y="-159.5" font-family="sans" font-size="10.00">pairwise_edit_distance</text>
</g>
<!-- 11&#45;&gt;13 -->
<g id="edge19" class="edge">
<title>11&#45;&gt;13</title>
<path fill="none" stroke="grey" stroke-width="2" d="M442.68,-215.7C445.5,-207.81 448.89,-198.3 452.02,-189.55"/>
<polygon fill="grey" stroke="grey" stroke-width="2" points="455.32,-190.7 455.39,-180.1 448.73,-188.34 455.32,-190.7"/>
</g>
<!-- 14 -->
<g id="node15" class="node">
<title>14</title>
<path fill="none" stroke="#56d863" stroke-width="2" d="M334.5,-108C334.5,-108 230.5,-108 230.5,-108 224.5,-108 218.5,-102 218.5,-96 218.5,-96 218.5,-84 218.5,-84 218.5,-78 224.5,-72 230.5,-72 230.5,-72 334.5,-72 334.5,-72 340.5,-72 346.5,-78 346.5,-84 346.5,-84 346.5,-96 346.5,-96 346.5,-102 340.5,-108 334.5,-108"/>
<text text-anchor="middle" x="282.5" y="-87.5" font-family="sans" font-size="10.00">multi_align_consensus</text>
</g>
<!-- 11&#45;&gt;14 -->
<g id="edge20" class="edge">
<title>11&#45;&gt;14</title>
<path fill="none" stroke="grey" stroke-width="2" d="M405.69,-215.9C389.87,-206.38 370.76,-193.7 355.5,-180 334.09,-160.78 313.68,-135.03 299.91,-116.18"/>
<polygon fill="grey" stroke="grey" stroke-width="2" points="302.75,-114.13 294.07,-108.05 297.06,-118.21 302.75,-114.13"/>
</g>
<!-- 11&#45;&gt;15 -->
<g id="edge24" class="edge">
<title>11&#45;&gt;15</title>
<path fill="none" stroke="grey" stroke-width="2" d="M470.67,-218.33C493.78,-208.4 524.67,-195.14 550.41,-184.08"/>
<polygon fill="grey" stroke="grey" stroke-width="2" points="551.82,-187.28 559.63,-180.12 549.06,-180.85 551.82,-187.28"/>
</g>
<!-- 12 -->
<g id="node13" class="node">
<title>12</title>
<path fill="none" stroke="#56d89a" stroke-width="2" d="M544,-108C544,-108 415,-108 415,-108 409,-108 403,-102 403,-96 403,-96 403,-84 403,-84 403,-78 409,-72 415,-72 415,-72 544,-72 544,-72 550,-72 556,-78 556,-84 556,-84 556,-96 556,-96 556,-102 550,-108 544,-108"/>
<text text-anchor="middle" x="479.5" y="-87.5" font-family="sans" font-size="10.00">pairwise_distance_heatmap</text>
</g>
<!-- 12&#45;&gt;0 -->
<g id="edge5" class="edge">
<title>12&#45;&gt;0</title>
<path fill="none" stroke="grey" stroke-width="2" d="M453.81,-71.88C440.21,-62.81 423.33,-51.55 408.64,-41.76"/>
<polygon fill="grey" stroke="grey" stroke-width="2" points="410.55,-38.82 400.28,-36.19 406.66,-44.65 410.55,-38.82"/>
</g>
<!-- 13&#45;&gt;12 -->
<g id="edge18" class="edge">
<title>13&#45;&gt;12</title>
<path fill="none" stroke="grey" stroke-width="2" d="M465.95,-143.7C467.95,-135.9 470.37,-126.51 472.6,-117.83"/>
<polygon fill="grey" stroke="grey" stroke-width="2" points="476,-118.66 475.1,-108.1 469.22,-116.92 476,-118.66"/>
</g>
<!-- 14&#45;&gt;0 -->
<g id="edge6" class="edge">
<title>14&#45;&gt;0</title>
<path fill="none" stroke="grey" stroke-width="2" d="M305.24,-71.7C316.94,-62.8 331.36,-51.82 344.01,-42.2"/>
<polygon fill="grey" stroke="grey" stroke-width="2" points="346.18,-44.94 352.02,-36.1 341.94,-39.37 346.18,-44.94"/>
</g>
<!-- 15&#45;&gt;0 -->
<g id="edge7" class="edge">
<title>15&#45;&gt;0</title>
<path fill="none" stroke="grey" stroke-width="2" d="M597.55,-143.67C594.37,-123.57 586.18,-90.81 565.5,-72 522.8,-33.14 454.02,-22.45 411.7,-19.7"/>
<polygon fill="grey" stroke="grey" stroke-width="2" points="411.71,-16.2 401.54,-19.16 411.34,-23.19 411.71,-16.2"/>
</g>
</g>
</svg>
